# xmcd
#
# Track frame offsets:
# 150
# 14550
# 27255
# 39501
# 55792
# 72150
# 91849
# 109712
# 126595
# 141288
#
# Disc length: 2057 seconds
#
#
# Revision: 0
# Processed by: cddbd v1.5.1PL2 Copyright (c) Steve Scherf et al.
# Submitted via: Nero 7, 2, 0, 3 
#
DISCID=8808070a
DTITLE=Con el Tio Mario - Hablemos de Música
DYEAR=2006
DGENRE=Blues
TTITLE0=Hablemos de Música
TTITLE1=Creer en Tí
TTITLE2=Ahora es Tiempo de Plantar un Arbol
TTITLE3=Actúa, Reacciona, Interactúa
TTITLE4=Di no
TTITLE5=Yo Quiero una Mascota
TTITLE6=Hoy Estoy Feliz
TTITLE7=La Era Electrónica
TTITLE8=Canción de Nada
TTITLE9=La Tempestad
EXTD=
EXTT0=
EXTT1=
EXTT2=
EXTT3=
EXTT4=
EXTT5=
EXTT6=
EXTT7=
EXTT8=
EXTT9=
PLAYORDER=
